<mxfile host="Electron" agent="Mozilla/5.0 (Windows NT 10.0; Win64; x64) AppleWebKit/537.36 (KHTML, like Gecko) draw.io/24.7.5 Chrome/126.0.6478.183 Electron/31.3.0 Safari/537.36" version="24.7.5">
  <diagram name="Page-1" id="kLHRsnOF7xnitCuTk8Lq">
    <mxGraphModel dx="1050" dy="621" grid="1" gridSize="10" guides="1" tooltips="1" connect="1" arrows="1" fold="1" page="1" pageScale="1" pageWidth="1169" pageHeight="827" math="0" shadow="0">
      <root>
        <mxCell id="0" />
        <mxCell id="1" parent="0" />
        <mxCell id="2cRGy_J_zxbnKhxFRNxj-4" value="" style="rounded=0;whiteSpace=wrap;html=1;dashed=1;fillColor=#d5e8d4;strokeColor=#82b366;fontStyle=1" vertex="1" parent="1">
          <mxGeometry x="240" y="20" width="680" height="420" as="geometry" />
        </mxCell>
        <mxCell id="2cRGy_J_zxbnKhxFRNxj-1" value="" style="rounded=0;whiteSpace=wrap;html=1;dashed=1;fillColor=#dae8fc;strokeColor=#6c8ebf;fontStyle=1" vertex="1" parent="1">
          <mxGeometry x="520" y="160" width="140" height="120" as="geometry" />
        </mxCell>
        <mxCell id="u6wNwKzbbvmqv20mMfwJ-34" style="edgeStyle=orthogonalEdgeStyle;rounded=0;orthogonalLoop=1;jettySize=auto;html=1;fontStyle=1" parent="1" source="u6wNwKzbbvmqv20mMfwJ-1" target="u6wNwKzbbvmqv20mMfwJ-7" edge="1">
          <mxGeometry relative="1" as="geometry">
            <mxPoint x="430" y="215" as="targetPoint" />
          </mxGeometry>
        </mxCell>
        <mxCell id="u6wNwKzbbvmqv20mMfwJ-41" value="original_video.yuv" style="edgeStyle=orthogonalEdgeStyle;rounded=0;orthogonalLoop=1;jettySize=auto;html=1;entryX=0;entryY=0.5;entryDx=0;entryDy=0;fontStyle=1;labelBackgroundColor=none;" parent="1" source="u6wNwKzbbvmqv20mMfwJ-1" target="u6wNwKzbbvmqv20mMfwJ-25" edge="1">
          <mxGeometry x="0.5727" y="10" relative="1" as="geometry">
            <Array as="points">
              <mxPoint x="310" y="360" />
            </Array>
            <mxPoint as="offset" />
          </mxGeometry>
        </mxCell>
        <mxCell id="u6wNwKzbbvmqv20mMfwJ-1" value="Video YUV 4:2:0" style="html=1;verticalLabelPosition=bottom;align=center;labelBackgroundColor=none;verticalAlign=top;strokeWidth=2;strokeColor=#000000;shadow=0;dashed=0;shape=mxgraph.ios7.icons.video_conversation;fontStyle=1" parent="1" vertex="1">
          <mxGeometry x="280" y="185" width="80" height="50" as="geometry" />
        </mxCell>
        <mxCell id="u6wNwKzbbvmqv20mMfwJ-10" value="" style="sketch=0;pointerEvents=1;shadow=0;dashed=0;html=1;strokeColor=none;fillColor=#434445;aspect=fixed;labelPosition=center;verticalLabelPosition=bottom;verticalAlign=top;align=center;outlineConnect=0;shape=mxgraph.vvd.cpu;container=1;fontStyle=1" parent="1" vertex="1">
          <mxGeometry x="560" y="180" width="60" height="60" as="geometry" />
        </mxCell>
        <mxCell id="u6wNwKzbbvmqv20mMfwJ-11" value="H.264 Intra Encoder" style="text;html=1;align=center;verticalAlign=middle;whiteSpace=wrap;rounded=0;fontStyle=1" parent="1" vertex="1">
          <mxGeometry x="550" y="240" width="80" height="30" as="geometry" />
        </mxCell>
        <mxCell id="u6wNwKzbbvmqv20mMfwJ-12" value="RTL" style="text;html=1;align=center;verticalAlign=middle;whiteSpace=wrap;rounded=0;fontStyle=1" parent="1" vertex="1">
          <mxGeometry x="550" y="195" width="80" height="30" as="geometry" />
        </mxCell>
        <mxCell id="u6wNwKzbbvmqv20mMfwJ-43" style="edgeStyle=orthogonalEdgeStyle;rounded=0;orthogonalLoop=1;jettySize=auto;html=1;entryX=0;entryY=0.5;entryDx=0;entryDy=0;fontStyle=1" parent="1" source="u6wNwKzbbvmqv20mMfwJ-18" target="u6wNwKzbbvmqv20mMfwJ-19" edge="1">
          <mxGeometry relative="1" as="geometry" />
        </mxCell>
        <mxCell id="u6wNwKzbbvmqv20mMfwJ-18" value=".dat" style="shape=note;whiteSpace=wrap;html=1;backgroundOutline=1;darkOpacity=0.05;size=16;fontStyle=1" parent="1" vertex="1">
          <mxGeometry x="436.91999999999996" y="60" width="50" height="60" as="geometry" />
        </mxCell>
        <mxCell id="u6wNwKzbbvmqv20mMfwJ-19" value="Bitstream Compare" style="rounded=0;whiteSpace=wrap;html=1;fontStyle=1" parent="1" vertex="1">
          <mxGeometry x="530" y="60" width="120" height="60" as="geometry" />
        </mxCell>
        <mxCell id="u6wNwKzbbvmqv20mMfwJ-20" value="Software&lt;div&gt;Bitstream&lt;/div&gt;" style="text;html=1;align=center;verticalAlign=middle;whiteSpace=wrap;rounded=0;fontStyle=1" parent="1" vertex="1">
          <mxGeometry x="421.91999999999996" y="30" width="80" height="30" as="geometry" />
        </mxCell>
        <mxCell id="u6wNwKzbbvmqv20mMfwJ-24" value="Software&amp;nbsp;&lt;span style=&quot;background-color: initial;&quot;&gt;Decoder&lt;/span&gt;" style="text;html=1;align=center;verticalAlign=middle;whiteSpace=wrap;rounded=0;fontStyle=1" parent="1" vertex="1">
          <mxGeometry x="760" y="390" width="120" height="30" as="geometry" />
        </mxCell>
        <mxCell id="u6wNwKzbbvmqv20mMfwJ-25" value="&lt;div&gt;&lt;br&gt;&lt;/div&gt;&lt;div&gt;PSNR | MSE&lt;/div&gt;" style="rounded=0;whiteSpace=wrap;html=1;fontStyle=1" parent="1" vertex="1">
          <mxGeometry x="483.85" y="330" width="120" height="60" as="geometry" />
        </mxCell>
        <mxCell id="u6wNwKzbbvmqv20mMfwJ-28" value="" style="shape=image;verticalLabelPosition=bottom;labelBackgroundColor=default;verticalAlign=top;aspect=fixed;imageAspect=0;image=https://img.api.video/ffmpeg_logo_wine_e24ae49afe.png;fontStyle=1" parent="1" vertex="1">
          <mxGeometry x="522.6" y="330" width="42.49" height="28.33" as="geometry" />
        </mxCell>
        <mxCell id="u6wNwKzbbvmqv20mMfwJ-29" value="Quality Compare" style="text;html=1;align=center;verticalAlign=middle;whiteSpace=wrap;rounded=0;fontStyle=1" parent="1" vertex="1">
          <mxGeometry x="492.31000000000006" y="390" width="103.08" height="30" as="geometry" />
        </mxCell>
        <mxCell id="u6wNwKzbbvmqv20mMfwJ-35" style="edgeStyle=orthogonalEdgeStyle;rounded=0;orthogonalLoop=1;jettySize=auto;html=1;fontStyle=1" parent="1" source="u6wNwKzbbvmqv20mMfwJ-7" edge="1">
          <mxGeometry relative="1" as="geometry">
            <mxPoint x="550" y="210" as="targetPoint" />
          </mxGeometry>
        </mxCell>
        <mxCell id="u6wNwKzbbvmqv20mMfwJ-7" value="" style="sketch=0;outlineConnect=0;fontColor=#232F3E;gradientColor=none;fillColor=#232F3D;strokeColor=none;dashed=0;verticalLabelPosition=bottom;verticalAlign=top;align=center;html=1;fontSize=12;fontStyle=1;aspect=fixed;pointerEvents=1;shape=mxgraph.aws4.source_code;" parent="1" vertex="1">
          <mxGeometry x="440" y="180" width="43.85" height="60" as="geometry" />
        </mxCell>
        <mxCell id="u6wNwKzbbvmqv20mMfwJ-8" value="f264.exe" style="text;html=1;align=center;verticalAlign=middle;whiteSpace=wrap;rounded=0;fontStyle=1" parent="1" vertex="1">
          <mxGeometry x="431.92" y="240" width="60" height="30" as="geometry" />
        </mxCell>
        <mxCell id="u6wNwKzbbvmqv20mMfwJ-36" style="edgeStyle=orthogonalEdgeStyle;rounded=0;orthogonalLoop=1;jettySize=auto;html=1;entryX=0;entryY=0.5;entryDx=0;entryDy=0;entryPerimeter=0;fontStyle=1" parent="1" source="u6wNwKzbbvmqv20mMfwJ-12" target="u6wNwKzbbvmqv20mMfwJ-13" edge="1">
          <mxGeometry relative="1" as="geometry" />
        </mxCell>
        <mxCell id="u6wNwKzbbvmqv20mMfwJ-44" style="edgeStyle=orthogonalEdgeStyle;rounded=0;orthogonalLoop=1;jettySize=auto;html=1;entryX=1;entryY=0.5;entryDx=0;entryDy=0;fontStyle=1" parent="1" source="u6wNwKzbbvmqv20mMfwJ-13" target="u6wNwKzbbvmqv20mMfwJ-19" edge="1">
          <mxGeometry relative="1" as="geometry">
            <Array as="points">
              <mxPoint x="700" y="90" />
            </Array>
          </mxGeometry>
        </mxCell>
        <mxCell id="u6wNwKzbbvmqv20mMfwJ-13" value=".dat" style="shape=note;whiteSpace=wrap;html=1;backgroundOutline=1;darkOpacity=0.05;size=16;fontStyle=1" parent="1" vertex="1">
          <mxGeometry x="678" y="180" width="50" height="60" as="geometry" />
        </mxCell>
        <mxCell id="u6wNwKzbbvmqv20mMfwJ-14" value="Bitstream" style="text;html=1;align=center;verticalAlign=middle;whiteSpace=wrap;rounded=0;fontStyle=1" parent="1" vertex="1">
          <mxGeometry x="663" y="240" width="80" height="30" as="geometry" />
        </mxCell>
        <mxCell id="u6wNwKzbbvmqv20mMfwJ-38" style="edgeStyle=orthogonalEdgeStyle;rounded=0;orthogonalLoop=1;jettySize=auto;html=1;entryX=0.042;entryY=0.5;entryDx=0;entryDy=0;entryPerimeter=0;fontStyle=1" parent="1" source="u6wNwKzbbvmqv20mMfwJ-13" target="u6wNwKzbbvmqv20mMfwJ-15" edge="1">
          <mxGeometry relative="1" as="geometry" />
        </mxCell>
        <mxCell id="u6wNwKzbbvmqv20mMfwJ-39" style="edgeStyle=orthogonalEdgeStyle;rounded=0;orthogonalLoop=1;jettySize=auto;html=1;entryX=1;entryY=0.5;entryDx=0;entryDy=0;fontStyle=1" parent="1" source="u6wNwKzbbvmqv20mMfwJ-15" target="u6wNwKzbbvmqv20mMfwJ-21" edge="1">
          <mxGeometry relative="1" as="geometry">
            <Array as="points">
              <mxPoint x="880" y="210" />
              <mxPoint x="880" y="360" />
            </Array>
          </mxGeometry>
        </mxCell>
        <mxCell id="u6wNwKzbbvmqv20mMfwJ-15" value="" style="sketch=0;outlineConnect=0;fontColor=#232F3E;gradientColor=none;fillColor=#232F3D;strokeColor=none;dashed=0;verticalLabelPosition=bottom;verticalAlign=top;align=center;html=1;fontSize=12;fontStyle=1;aspect=fixed;pointerEvents=1;shape=mxgraph.aws4.source_code;" parent="1" vertex="1">
          <mxGeometry x="798.0799999999999" y="180" width="43.85" height="60" as="geometry" />
        </mxCell>
        <mxCell id="u6wNwKzbbvmqv20mMfwJ-16" value="bs2h264.exe" style="text;html=1;align=center;verticalAlign=middle;whiteSpace=wrap;rounded=0;fontStyle=1" parent="1" vertex="1">
          <mxGeometry x="790" y="240" width="60" height="30" as="geometry" />
        </mxCell>
        <mxCell id="u6wNwKzbbvmqv20mMfwJ-40" value="decoded.yuv" style="edgeStyle=orthogonalEdgeStyle;rounded=0;orthogonalLoop=1;jettySize=auto;html=1;entryX=1;entryY=0.5;entryDx=0;entryDy=0;fontStyle=1;labelBackgroundColor=none;" parent="1" source="u6wNwKzbbvmqv20mMfwJ-21" target="u6wNwKzbbvmqv20mMfwJ-25" edge="1">
          <mxGeometry x="0.3967" y="-10" relative="1" as="geometry">
            <mxPoint as="offset" />
          </mxGeometry>
        </mxCell>
        <mxCell id="u6wNwKzbbvmqv20mMfwJ-42" style="edgeStyle=orthogonalEdgeStyle;rounded=0;orthogonalLoop=1;jettySize=auto;html=1;entryX=0.5;entryY=1;entryDx=0;entryDy=0;entryPerimeter=0;fontStyle=1" parent="1" source="u6wNwKzbbvmqv20mMfwJ-7" target="u6wNwKzbbvmqv20mMfwJ-18" edge="1">
          <mxGeometry relative="1" as="geometry" />
        </mxCell>
        <mxCell id="u6wNwKzbbvmqv20mMfwJ-21" value="" style="rounded=0;whiteSpace=wrap;html=1;fontStyle=1" parent="1" vertex="1">
          <mxGeometry x="790" y="330" width="60" height="60" as="geometry" />
        </mxCell>
        <mxCell id="u6wNwKzbbvmqv20mMfwJ-22" value="" style="shape=image;verticalLabelPosition=bottom;labelBackgroundColor=default;verticalAlign=top;aspect=fixed;imageAspect=0;image=https://img.api.video/ffmpeg_logo_wine_e24ae49afe.png;fontStyle=1" parent="1" vertex="1">
          <mxGeometry x="790" y="340.40999999999997" width="58.76" height="39.18" as="geometry" />
        </mxCell>
        <mxCell id="2cRGy_J_zxbnKhxFRNxj-2" value="FPGA" style="text;html=1;align=center;verticalAlign=middle;whiteSpace=wrap;rounded=0;fontStyle=1" vertex="1" parent="1">
          <mxGeometry x="520" y="160" width="46.15" height="20" as="geometry" />
        </mxCell>
        <mxCell id="2cRGy_J_zxbnKhxFRNxj-5" value="&lt;font style=&quot;font-size: 25px;&quot;&gt;PC&lt;/font&gt;" style="text;html=1;align=center;verticalAlign=middle;whiteSpace=wrap;rounded=0;fontStyle=1" vertex="1" parent="1">
          <mxGeometry x="240" y="20" width="80" height="60" as="geometry" />
        </mxCell>
      </root>
    </mxGraphModel>
  </diagram>
</mxfile>
